<svg width="17" height="17" viewBox="0 0 17 17" fill="none" xmlns="http://www.w3.org/2000/svg">
<path d="M5.45456 10.9091C6.05705 10.9091 6.54547 10.4207 6.54547 9.8182C6.54547 9.21571 6.05705 8.72729 5.45456 8.72729C4.85206 8.72729 4.36365 9.21571 4.36365 9.8182C4.36365 10.4207 4.85206 10.9091 5.45456 10.9091Z" fill="#657786"/>
<path d="M10.5454 10.9091C11.1479 10.9091 11.6363 10.4207 11.6363 9.8182C11.6363 9.21571 11.1479 8.72729 10.5454 8.72729C9.94295 8.72729 9.45453 9.21571 9.45453 9.8182C9.45453 10.4207 9.94295 10.9091 10.5454 10.9091Z" fill="#657786"/>
<path fill-rule="evenodd" clip-rule="evenodd" d="M16 8.72722C16 7.64576 15.2109 6.75413 14.1782 6.58176C13.2895 4.02176 10.8625 2.18176 8 2.18176C5.13745 2.18176 2.71055 4.02176 1.82182 6.58176C0.789091 6.75413 0 7.64576 0 8.72722C0 9.80867 0.789091 10.7003 1.82182 10.8727C2.71055 13.4327 5.13745 15.2727 8 15.2727C10.8625 15.2727 13.2895 13.4327 14.1782 10.8727C15.2109 10.7003 16 9.80867 16 8.72722Z" stroke="#667580" stroke-width="1.5" stroke-linecap="round" stroke-linejoin="round"/>
<path d="M8.00003 4.36364C7.81821 1.75782 9.21239 0.151273 11.6364 0" stroke="#667580" stroke-width="1.5" stroke-linecap="round" stroke-linejoin="round"/>
</svg>
