<svg width="16" height="16" viewBox="0 0 16 16" fill="none" xmlns="http://www.w3.org/2000/svg">
<path fill-rule="evenodd" clip-rule="evenodd" d="M16 8C16 12.4183 12.4183 16 8 16C3.58172 16 0 12.4183 0 8C0 3.58172 3.58172 0 8 0C12.4183 0 16 3.58172 16 8ZM14.5 8C14.5 11.5899 11.5899 14.5 8 14.5C4.41015 14.5 1.5 11.5899 1.5 8C1.5 4.41015 4.41015 1.5 8 1.5C11.5899 1.5 14.5 4.41015 14.5 8ZM7.80804 3C7.38847 3 7.04834 3.34013 7.04834 3.7597V7.7211C7.04802 7.73045 7.04785 7.73984 7.04785 7.74927C7.04785 8.1895 7.40473 8.54639 7.84497 8.54639H10.7458C11.1861 8.54639 11.543 8.1895 11.543 7.74927C11.543 7.30903 11.1861 6.95215 10.7458 6.95215H8.56775V3.7597C8.56775 3.34013 8.22762 3 7.80804 3Z" fill="#66757F"/>
</svg>
