<svg width="21" height="18" viewBox="0 0 21 18" fill="none" xmlns="http://www.w3.org/2000/svg">
<path fill-rule="evenodd" clip-rule="evenodd" d="M0.584473 15.3194C0.909028 15.3577 1.23928 15.3773 1.57412 15.3773C3.51775 15.3773 5.30658 14.7141 6.7264 13.6015C4.91102 13.5679 3.37892 12.3685 2.85104 10.7203C3.10429 10.7688 3.3642 10.7947 3.63151 10.7947C4.00991 10.7947 4.3764 10.7441 4.72455 10.6492C2.82663 10.2682 1.39668 8.5914 1.39668 6.58135C1.39668 6.56389 1.39668 6.54651 1.39697 6.5292C1.95636 6.83993 2.59601 7.02654 3.27611 7.04806C2.16295 6.30413 1.43048 5.03431 1.43048 3.59504C1.43048 2.83476 1.63506 2.12211 1.99216 1.50939C4.03831 4.0193 7.09518 5.67092 10.5431 5.84392C10.4724 5.5403 10.4356 5.22366 10.4356 4.89851C10.4356 2.60747 12.2932 0.75 14.5844 0.75C15.7776 0.75 16.8557 1.25385 17.6125 2.06013C18.5575 1.87404 19.4454 1.52877 20.2469 1.0534C19.9372 2.02211 19.2794 2.83513 18.4228 3.34859C19.262 3.24829 20.0616 3.02529 20.8056 2.69534C20.2494 3.52729 19.546 4.25798 18.7355 4.84289C18.7435 5.02078 18.7475 5.1997 18.7475 5.37958C18.7475 10.8617 14.5747 17.1833 6.94393 17.1833C4.60111 17.1833 2.42042 16.4965 0.584473 15.3194Z" fill="#55ACEE"/>
</svg>
