<svg width="18" height="16" viewBox="0 0 18 16" fill="none" xmlns="http://www.w3.org/2000/svg">
<path d="M8.99995 7.86662L16.0294 4.1176C16.5167 3.8577 17.1224 4.04205 17.3823 4.52937C17.6422 5.01668 17.4579 5.62241 16.9705 5.88231L9.47054 9.88231C9.17642 10.0392 8.82348 10.0392 8.52936 9.88231L1.02937 5.88231C0.542055 5.62241 0.357702 5.01668 0.6176 4.52937C0.877499 4.04205 1.48323 3.8577 1.97054 4.1176L8.99995 7.86662Z" fill="#667580"/>
<path fill-rule="evenodd" clip-rule="evenodd" d="M2.5 15.5H15.5C16.6043 15.5 17.5 14.6043 17.5 13.5V2.5C17.5 1.39572 16.6043 0.5 15.5 0.5H2.5C1.39572 0.5 0.5 1.39572 0.5 2.5V13.5C0.5 14.6043 1.39572 15.5 2.5 15.5ZM15.5 2.5V13.5H2.5V2.5H15.5Z" fill="#667580"/>
</svg>
