<svg width="14" height="17" viewBox="0 0 14 17" fill="none" xmlns="http://www.w3.org/2000/svg">
<path fill-rule="evenodd" clip-rule="evenodd" d="M0 7C0 3.1 3.1 0 7 0C10.9 0 14 3.1 13.9 7C13.9 8.9 13.2 10.7 11.8 12C11.8 12.0748 9.5072 14.1068 8.30894 15.1688C7.90484 15.527 7.62522 15.7748 7.6 15.8C7.3 16.1 6.7 16.1 6.3 15.8C6.25 15.75 5.225 14.825 4.2 13.9C3.175 12.975 2.15 12.05 2.1 12C0.7 10.7 0 8.9 0 7ZM7 13.6L10.4 10.6C11.4 9.7 12 8.4 12 7C12 4.2 9.8 2 7 2C4.2 2 2 4.2 2 7C2 8.4 2.6 9.7 3.6 10.6L7 13.6Z" fill="#657786"/>
</svg>
