<svg width="15" height="16" viewBox="0 0 15 16" fill="none" xmlns="http://www.w3.org/2000/svg">
<path fill-rule="evenodd" clip-rule="evenodd" d="M4.02703 8.37789L6.14703 10.4989L7.56103 9.08489L5.44003 6.96389C5.37403 6.89789 5.36103 6.82189 5.36103 6.76989C5.36103 6.71889 5.37403 6.64389 5.44103 6.57689L9.71503 2.30389C9.87603 2.14389 9.99903 2.14389 10.16 2.30389L12.183 4.32589C12.26 4.40289 12.272 4.49489 12.272 4.54189C12.272 4.59989 12.257 4.68389 12.183 4.75689L10.918 6.02289L12.332 7.43589L13.597 6.17089C14.032 5.73589 14.272 5.15689 14.272 4.54189C14.272 3.92689 14.033 3.34789 13.597 2.91189L11.575 0.889893C10.701 0.0148926 9.17403 0.0148926 8.30103 0.889893L4.02603 5.16289C3.59703 5.59289 3.36103 6.16389 3.36103 6.76989C3.36103 7.37789 3.59703 7.94889 4.02703 8.37789ZM0.929028 12.8539L2.95203 14.8759C3.38903 15.3139 3.97003 15.5539 4.58903 15.5539C5.20803 15.5539 5.78903 15.3139 6.22603 14.8759L10.499 10.6019C10.929 10.1739 11.165 9.60189 11.165 8.99489C11.165 8.38789 10.929 7.81589 10.5 7.38789L8.37903 5.26789L6.96503 6.68189L9.08603 8.80189C9.15203 8.86789 9.16503 8.94289 9.16503 8.99489C9.16503 9.04689 9.15203 9.12189 9.08503 9.18889L4.81103 13.4619C4.65103 13.6219 4.52703 13.6219 4.36603 13.4619L2.34303 11.4399C2.26903 11.3659 2.25403 11.2819 2.25403 11.2249C2.25403 11.1779 2.26603 11.0859 2.34303 11.0089L3.60803 9.74389L2.19403 8.32989L0.929028 9.59489C0.494028 10.0299 0.254028 10.6089 0.254028 11.2249C0.254028 11.8399 0.494028 12.4189 0.929028 12.8539Z" fill="#657786"/>
</svg>
