<svg width="22" height="20" viewBox="0 0 22 20" fill="none" xmlns="http://www.w3.org/2000/svg">
<path d="M0.0245098 10.344L1.00939 10.5173L1.01813 10.4675L1.02183 10.4172L0.0245098 10.344ZM1.31251 11.268L0.842117 10.3855L0.803412 10.4062L0.766662 10.4301L1.31251 11.268ZM2.95251 10.729L3.93198 10.5274L3.72236 9.509L2.7129 9.75813L2.95251 10.729ZM5.21251 19.271L4.31514 19.7123L4.44703 19.9805L4.70447 20.1323L5.21251 19.271ZM15.5245 19.271L16.0329 20.1322L16.0771 20.1061L16.1184 20.0756L15.5245 19.271ZM18.0565 10.709L18.3812 9.76319L17.2771 9.38409L17.0721 10.5334L18.0565 10.709ZM19.4245 11.268L19.9704 10.4301L19.934 10.4064L19.8957 10.386L19.4245 11.268ZM20.8995 10.302L21.8842 10.1278L21.8701 10.0479L21.8433 9.97133L20.8995 10.302ZM10.4603 -0.5C10.2524 -0.5 10.0827 -0.44117 10.0011 -0.410142C9.90155 -0.372315 9.80796 -0.325858 9.72746 -0.2821C9.56565 -0.194143 9.38655 -0.0784077 9.20291 0.0491585C8.83195 0.306852 8.36891 0.664493 7.85549 1.08251C6.82479 1.9217 5.53948 3.04646 4.28274 4.20695C3.02697 5.36655 1.78488 6.57551 0.844806 7.58336C0.376659 8.08526 -0.0315577 8.55319 -0.331699 8.94924C-0.480961 9.1462 -0.617666 9.34385 -0.723443 9.53172C-0.811611 9.68831 -0.949913 9.9588 -0.972809 10.2708L1.02183 10.4172C1.01068 10.5691 0.957598 10.6226 1.0193 10.513C1.06339 10.4347 1.1412 10.317 1.26229 10.1572C1.50285 9.83979 1.85866 9.42857 2.30734 8.94755C3.20092 7.98955 4.40365 6.81757 5.63957 5.6763C6.87454 4.53592 8.1278 3.43987 9.11825 2.63346C9.61541 2.22868 10.0336 1.90733 10.3439 1.69173C10.501 1.58265 10.6126 1.51316 10.6827 1.47506C10.7181 1.45579 10.7258 1.454 10.7117 1.45935C10.7038 1.46233 10.6808 1.47078 10.6456 1.47913C10.6131 1.48686 10.5477 1.5 10.4603 1.5V-0.5ZM-0.960367 10.1707C-1.03211 10.5786 -1.01222 10.994 -0.85188 11.375C-0.687828 11.7647 -0.403099 12.0532 -0.0653696 12.2273C0.572163 12.556 1.32403 12.454 1.85836 12.1059L0.766662 10.4301C0.771308 10.4271 0.773263 10.4266 0.772414 10.4269C0.771532 10.4272 0.771104 10.4271 0.772354 10.427C0.773544 10.4269 0.780142 10.4265 0.792319 10.4287C0.804645 10.4309 0.825325 10.4364 0.851139 10.4497C0.877665 10.4634 0.907181 10.4841 0.934496 10.5132C0.962252 10.5428 0.980744 10.5736 0.991493 10.5991C1.01349 10.6514 0.987631 10.6409 1.00939 10.5173L-0.960367 10.1707ZM1.7829 12.1505C1.91438 12.0804 2.22906 11.9706 2.59094 11.864C2.75549 11.8155 2.90727 11.7741 3.01811 11.7448C3.07332 11.7302 3.11787 11.7187 3.14815 11.711C3.16328 11.7071 3.17481 11.7042 3.1823 11.7023C3.18604 11.7014 3.18877 11.7007 3.19042 11.7003C3.19125 11.7001 3.19181 11.6999 3.1921 11.6999C3.19224 11.6998 3.19231 11.6998 3.19232 11.6998C3.19232 11.6998 3.1923 11.6998 3.19227 11.6998C3.19225 11.6998 3.19221 11.6998 3.19221 11.6998C3.19216 11.6999 3.19212 11.6999 2.95251 10.729C2.7129 9.75813 2.71285 9.75814 2.71279 9.75816C2.71276 9.75817 2.71269 9.75818 2.71264 9.75819C2.71254 9.75822 2.71242 9.75825 2.71228 9.75828C2.712 9.75835 2.71164 9.75844 2.71122 9.75855C2.71038 9.75875 2.70925 9.75904 2.70785 9.75938C2.70504 9.76008 2.70114 9.76105 2.69619 9.76229C2.68629 9.76477 2.67221 9.76832 2.6544 9.77286C2.61881 9.78193 2.56821 9.79497 2.50632 9.81136C2.38294 9.84402 2.21266 9.89047 2.02583 9.9455C1.68496 10.0459 1.17964 10.2056 0.842117 10.3855L1.7829 12.1505ZM2.95251 10.729C1.97304 10.9306 1.97306 10.9307 1.97307 10.9308C1.97309 10.9308 1.97311 10.9309 1.97314 10.9311C1.97319 10.9313 1.97326 10.9317 1.97335 10.9321C1.97354 10.933 1.97382 10.9344 1.97417 10.9361C1.97489 10.9395 1.97593 10.9446 1.97731 10.9512C1.98006 10.9645 1.98411 10.9841 1.98942 11.0096C2.00003 11.0605 2.01564 11.1351 2.03577 11.2305C2.07603 11.4213 2.13442 11.6954 2.20715 12.0296C2.35253 12.6975 2.55563 13.6075 2.78618 14.5739C3.01638 15.5388 3.27575 16.5676 3.53379 17.4707C3.78532 18.351 4.05525 19.1838 4.31514 19.7123L6.10988 18.8297C5.93827 18.4807 5.70995 17.807 5.45682 16.9212C5.2102 16.0581 4.95852 15.061 4.73159 14.1098C4.50501 13.1601 4.30493 12.2637 4.1614 11.6042C4.08968 11.2747 4.03218 11.0048 3.99267 10.8176C3.97292 10.724 3.95768 10.6511 3.9474 10.6017C3.94226 10.5771 3.93837 10.5583 3.93578 10.5458C3.93448 10.5395 3.93351 10.5349 3.93288 10.5318C3.93256 10.5302 3.93233 10.5291 3.93217 10.5284C3.9321 10.528 3.93204 10.5277 3.93201 10.5276C3.932 10.5275 3.93199 10.5274 3.93198 10.5274C3.93197 10.5274 3.93198 10.5274 2.95251 10.729ZM4.70447 20.1323C5.01111 20.3132 5.4097 20.417 5.75802 20.4872C6.13787 20.5638 6.58691 20.624 7.07042 20.6708C8.03961 20.7646 9.2098 20.8102 10.3689 20.8102C11.528 20.8102 12.6981 20.7646 13.6672 20.6708C14.1506 20.624 14.5996 20.5638 14.9794 20.4872C15.3276 20.417 15.7262 20.3132 16.0329 20.1322L15.0162 18.4098C15.0183 18.4086 14.9044 18.4621 14.584 18.5267C14.2953 18.5849 13.9197 18.637 13.4745 18.6801C12.5864 18.766 11.4832 18.8102 10.3689 18.8102C9.2546 18.8102 8.15135 18.766 7.26307 18.6801C6.81784 18.637 6.44214 18.5849 6.15325 18.5266C5.83282 18.462 5.71866 18.4085 5.72055 18.4097L4.70447 20.1323ZM16.1184 20.0756C16.464 19.8205 16.6991 19.4223 16.8574 19.1102C17.0345 18.7609 17.2001 18.3425 17.3533 17.8999C17.6606 17.0119 17.9497 15.9319 18.1967 14.9032C18.4449 13.8698 18.6557 12.8662 18.8042 12.1226C18.8786 11.7503 18.9375 11.442 18.978 11.2263C18.9983 11.1184 19.0139 11.0336 19.0245 10.9755C19.0298 10.9465 19.0339 10.924 19.0366 10.9088C19.038 10.9011 19.0391 10.8952 19.0398 10.8912C19.0402 10.8892 19.0404 10.8876 19.0406 10.8865C19.0407 10.886 19.0408 10.8855 19.0409 10.8852C19.0409 10.8851 19.0409 10.8849 19.0409 10.8848C19.041 10.8847 19.041 10.8846 18.0565 10.709C17.0721 10.5334 17.0721 10.5334 17.0721 10.5334C17.072 10.5334 17.072 10.5334 17.072 10.5335C17.072 10.5336 17.072 10.5339 17.0719 10.5343C17.0717 10.5351 17.0715 10.5363 17.0712 10.538C17.0706 10.5414 17.0697 10.5466 17.0684 10.5535C17.0659 10.5674 17.0621 10.5884 17.0571 10.616C17.047 10.6712 17.0319 10.7529 17.0123 10.8575C16.9731 11.0666 16.9156 11.3672 16.843 11.7309C16.6975 12.4591 16.4922 13.4359 16.252 14.4363C16.0107 15.4413 15.7392 16.4485 15.4632 17.2459C15.3247 17.6461 15.1931 17.97 15.0736 18.2056C14.9353 18.4785 14.8743 18.508 14.9306 18.4664L16.1184 20.0756ZM18.0565 10.709C17.7318 11.6548 17.7317 11.6548 17.7317 11.6548C17.7317 11.6548 17.7317 11.6548 17.7317 11.6548C17.7316 11.6548 17.7316 11.6548 17.7316 11.6548C17.7316 11.6547 17.7317 11.6548 17.7318 11.6548C17.732 11.6549 17.7324 11.655 17.733 11.6552C17.7343 11.6557 17.7364 11.6564 17.7393 11.6574C17.745 11.6594 17.7539 11.6625 17.7656 11.6666C17.789 11.6748 17.8237 11.687 17.8669 11.7025C17.9537 11.7336 18.074 11.7776 18.2076 11.8287C18.4887 11.9363 18.7794 12.0571 18.9533 12.15L19.8957 10.386C19.6016 10.2289 19.2083 10.0702 18.9224 9.96081C18.7725 9.90344 18.6386 9.8545 18.542 9.81987C18.4935 9.80251 18.4542 9.78863 18.4266 9.77896C18.4128 9.77412 18.4019 9.77033 18.3942 9.76767C18.3904 9.76634 18.3873 9.7653 18.3852 9.76455C18.3841 9.76417 18.3832 9.76387 18.3826 9.76365C18.3822 9.76353 18.382 9.76344 18.3817 9.76336C18.3816 9.76332 18.3815 9.76329 18.3814 9.76326C18.3814 9.76325 18.3813 9.76323 18.3813 9.76322C18.3813 9.76321 18.3812 9.76319 18.0565 10.709ZM18.8787 12.1059C19.464 12.4872 20.2507 12.5126 20.8659 12.2214C21.1972 12.0645 21.5134 11.7998 21.7145 11.4094C21.9171 11.016 21.9629 10.5725 21.8842 10.1278L19.9148 10.4762C19.9229 10.5221 19.9201 10.5412 19.9204 10.5389C19.9208 10.5355 19.9239 10.518 19.9364 10.4938C19.9487 10.4698 19.9649 10.4496 19.9808 10.4349C19.996 10.4209 20.0073 10.415 20.0102 10.4136C20.0127 10.4124 20.0092 10.4144 19.999 10.4163C19.9889 10.4182 19.9766 10.4191 19.9641 10.4185C19.9515 10.4178 19.944 10.4159 19.9425 10.4154C19.9408 10.4149 19.9514 10.4178 19.9704 10.4301L18.8787 12.1059ZM21.8433 9.97133C21.7687 9.75868 21.6458 9.55705 21.5381 9.3974C21.4209 9.22382 21.277 9.03523 21.1169 8.83903C20.7963 8.44598 20.3776 7.98146 19.9013 7.47981C18.9464 6.47434 17.7205 5.27864 16.4901 4.13379C15.2598 2.98895 14.0126 1.88333 13.0134 1.05938C12.5158 0.649049 12.0664 0.297535 11.7049 0.0439754C11.526 -0.0815262 11.3502 -0.196115 11.19 -0.283498C11.1102 -0.327016 11.0169 -0.373394 10.9171 -0.411168C10.8339 -0.442687 10.666 -0.5 10.4603 -0.5V1.5C10.3748 1.5 10.3103 1.48737 10.2771 1.47955C10.2415 1.4712 10.2178 1.46263 10.2091 1.4593C10.1932 1.45331 10.199 1.45413 10.2323 1.47231C10.2983 1.5083 10.4049 1.57504 10.5564 1.68133C10.8558 1.89135 11.2594 2.20528 11.741 2.60241C12.7001 3.39336 13.9162 4.47068 15.1277 5.59796C16.3392 6.72523 17.5335 7.89085 18.451 8.85703C18.9108 9.34121 19.2913 9.7651 19.5671 10.1032C19.7053 10.2726 19.8088 10.4102 19.8802 10.5161C19.9611 10.6359 19.9678 10.6669 19.9558 10.6327L21.8433 9.97133ZM9.21251 9.188C9.21251 8.49857 9.77151 7.94 10.4605 7.94V5.94C8.66751 5.94 7.21251 7.39343 7.21251 9.188H9.21251ZM10.4605 7.94C11.1502 7.94 11.7085 8.49828 11.7085 9.188H13.7085C13.7085 7.39372 12.2548 5.94 10.4605 5.94V7.94ZM11.7085 9.188C11.7085 9.877 11.1499 10.436 10.4605 10.436V12.436C12.2551 12.436 13.7085 10.981 13.7085 9.188H11.7085ZM10.4605 10.436C9.77179 10.436 9.21251 9.87672 9.21251 9.188H7.21251C7.21251 10.9813 8.66722 12.436 10.4605 12.436V10.436Z" fill="#667580"/>
</svg>
