<svg width="18" height="18" viewBox="0 0 18 18" fill="none" xmlns="http://www.w3.org/2000/svg">
<path d="M1.5 13.5L5.5 9.5L8.5 12.5L12.5 7.5L16.5 11.5" stroke="#657786" stroke-width="1.5" stroke-linecap="round" stroke-linejoin="round"/>
<path fill-rule="evenodd" clip-rule="evenodd" d="M15.5 16.5H2.5C1.948 16.5 1.5 16.052 1.5 15.5V2.5C1.5 1.948 1.948 1.5 2.5 1.5H15.5C16.052 1.5 16.5 1.948 16.5 2.5V15.5C16.5 16.052 16.052 16.5 15.5 16.5Z" stroke="#657786" stroke-width="1.5" stroke-linecap="round" stroke-linejoin="round"/>
<path d="M7.5 7C8.32843 7 9 6.32843 9 5.5C9 4.67157 8.32843 4 7.5 4C6.67157 4 6 4.67157 6 5.5C6 6.32843 6.67157 7 7.5 7Z" fill="#657786"/>
</svg>
