<svg width="6" height="18" viewBox="0 0 6 18" fill="none" xmlns="http://www.w3.org/2000/svg">
<path fill-rule="evenodd" clip-rule="evenodd" d="M3 5C4.10457 5 5 4.10457 5 3C5 1.89543 4.10457 1 3 1C1.89543 1 1 1.89543 1 3C1 4.10457 1.89543 5 3 5Z" stroke="#667580"/>
<path fill-rule="evenodd" clip-rule="evenodd" d="M3 11C4.10457 11 5 10.1046 5 9C5 7.89543 4.10457 7 3 7C1.89543 7 1 7.89543 1 9C1 10.1046 1.89543 11 3 11Z" stroke="#667580"/>
<path fill-rule="evenodd" clip-rule="evenodd" d="M3 17C4.10457 17 5 16.1046 5 15C5 13.8954 4.10457 13 3 13C1.89543 13 1 13.8954 1 15C1 16.1046 1.89543 17 3 17Z" stroke="#667580"/>
</svg>
